<svg width="34" height="36" viewBox="0 0 34 36" fill="none" xmlns="http://www.w3.org/2000/svg">
<path d="M24.0057 35.9983C22.1895 36.0315 20.3995 35.5669 18.8332 34.6559C17.35 33.7849 16.1346 32.53 15.318 31.0262C14.4717 29.4685 14.0396 27.7233 14.0625 25.9547V9.29806C14.0717 8.57326 13.8807 7.85975 13.5101 7.23463C13.1491 6.62987 12.6395 6.12531 12.0286 5.76785C11.4141 5.40441 10.7106 5.2152 9.9948 5.22092C9.2866 5.2126 8.59039 5.40217 7.98606 5.76785C7.38531 6.12968 6.88485 6.63372 6.52973 7.23463C6.15795 7.85926 5.96685 8.5731 5.97733 9.29806V35.4017H0.00134244V10.0439C-0.027369 8.26671 0.404897 6.51196 1.2568 4.94745C2.07867 3.45388 3.29334 2.20828 4.77209 1.34266C6.37818 0.462019 8.18398 0 10.0199 0C11.8558 0 13.6616 0.462019 15.2677 1.34266C16.7459 2.20906 17.9603 3.45447 18.783 4.94745C19.6338 6.5124 20.066 8.26684 20.0385 10.0439V26.7005C20.028 27.4254 20.2191 28.1393 20.5909 28.7639C20.946 29.3648 21.4465 29.8689 22.0472 30.2307C22.6352 30.5916 23.314 30.7811 24.0057 30.7776C24.7139 30.7859 25.4101 30.5964 26.0145 30.2307C26.6112 29.8721 27.1043 29.3668 27.4457 28.7639C27.8015 28.1339 27.9834 27.4222 27.973 26.7005V0.596846H33.9992V25.9547C34.0213 27.7232 33.5893 29.4683 32.7437 31.0262C31.9307 32.5245 30.7251 33.7783 29.2536 34.6559C27.7621 35.5508 26.0128 35.9983 24.0057 35.9983Z" fill="white"/>
</svg>
