<svg width="159" height="175" viewBox="0 0 159 175" fill="none" xmlns="http://www.w3.org/2000/svg">
<path opacity="0.5" d="M109.304 154.311C100.098 158.064 90.0351 160.131 79.4935 160.131C35.5904 160.131 0 124.284 0 80.0654C0 35.8465 35.5904 0 79.4935 0C123.396 0 158.987 35.8465 158.987 80.0654C158.987 89.2369 157.456 98.048 154.637 106.254L139.837 91.3466C132.852 84.3112 121.527 84.3112 114.542 91.3466L94.6688 111.363C87.6837 118.398 87.6837 129.804 94.6688 136.84C98.6673 140.867 104.089 142.589 109.304 142.006V154.311Z" fill="#6B6B6B"/>
<path fill-rule="evenodd" clip-rule="evenodd" d="M90.1562 38.6029C90.1562 35.405 87.5796 32.8125 84.4015 32.8125C81.2234 32.8125 78.6468 35.405 78.6468 38.6029V81.4514C75.7695 79.9706 72.5092 79.136 69.0556 79.136C57.4021 79.136 47.9551 88.6416 47.9551 100.368C47.9551 112.094 57.4021 121.599 69.0556 121.599C80.7093 121.599 90.1562 112.094 90.1562 100.368V61.767C94.9648 65.4011 100.943 67.5551 107.42 67.5551C110.598 67.5551 113.175 64.9626 113.175 61.7647C113.175 58.5668 110.598 55.9743 107.42 55.9743C97.8859 55.9743 90.1562 48.1969 90.1562 38.6029Z" fill="#E6E6E6"/>
<path fill-rule="evenodd" clip-rule="evenodd" d="M123.731 97.0039C126.463 94.2449 130.891 94.2449 133.622 97.0039L156.938 120.553C159.67 123.312 159.67 127.784 156.938 130.543C154.207 133.302 149.778 133.302 147.047 130.543L135.671 119.055V167.935C135.671 171.837 132.54 175 128.677 175C124.814 175 121.682 171.837 121.682 167.935V119.055L110.307 130.543C107.575 133.302 103.147 133.302 100.415 130.543C97.6833 127.784 97.6833 123.312 100.415 120.553L123.731 97.0039Z" fill="#E6E6E6"/>
</svg>
