<svg width="230" height="44" viewBox="0 0 230 44" fill="none" xmlns="http://www.w3.org/2000/svg">
<path d="M29.58 43.72C27.26 43.72 25.2 43.18 23.4 42.1C21.6 41.02 20.2 39.56 19.2 37.72C18.2 35.88 17.7 33.84 17.7 31.6V11.5C17.7 10.58 17.48 9.76 17.04 9.04C16.6 8.28 16 7.68 15.24 7.24C14.52 6.8 13.72 6.58 12.84 6.58C11.96 6.58 11.16 6.8 10.44 7.24C9.72 7.68 9.14 8.28 8.7 9.04C8.26 9.76 8.04 10.58 8.04 11.5V43H0.9V12.4C0.9 10.12 1.4 8.08 2.4 6.28C3.4 4.44 4.8 2.98 6.6 1.9C8.4 0.819998 10.48 0.279999 12.84 0.279999C15.24 0.279999 17.34 0.819998 19.14 1.9C20.94 2.98 22.34 4.44 23.34 6.28C24.34 8.08 24.84 10.12 24.84 12.4V32.5C24.84 33.42 25.06 34.26 25.5 35.02C25.94 35.74 26.52 36.32 27.24 36.76C27.96 37.2 28.74 37.42 29.58 37.42C30.46 37.42 31.26 37.2 31.98 36.76C32.7 36.32 33.26 35.74 33.66 35.02C34.1 34.26 34.32 33.42 34.32 32.5V0.999997H41.52V31.6C41.52 33.84 41.02 35.88 40.02 37.72C39.02 39.56 37.62 41.02 35.82 42.1C34.06 43.18 31.98 43.72 29.58 43.72ZM69.4584 43.78C66.1384 43.78 63.1184 43.22 60.3984 42.1C57.7184 40.94 55.4184 39.36 53.4984 37.36C51.6184 35.36 50.1584 33.04 49.1184 30.4C48.0784 27.76 47.5584 24.94 47.5584 21.94C47.5584 18.94 48.0784 16.14 49.1184 13.54C50.1584 10.9 51.6184 8.58 53.4984 6.58C55.4184 4.58 57.7184 3.02 60.3984 1.9C63.1184 0.779996 66.1384 0.219996 69.4584 0.219996C72.8184 0.219996 75.8384 0.779996 78.5184 1.9C81.1984 3.02 83.4984 4.58 85.4184 6.58C87.3384 8.58 88.8184 10.9 89.8584 13.54C90.8984 16.14 91.4184 18.94 91.4184 21.94C91.4184 24.94 90.8984 27.76 89.8584 30.4C88.8184 33.04 87.3384 35.36 85.4184 37.36C83.4984 39.36 81.1984 40.94 78.5184 42.1C75.8384 43.22 72.8184 43.78 69.4584 43.78ZM69.4584 37.42C71.5784 37.42 73.5384 37.04 75.3384 36.28C77.1384 35.52 78.6984 34.44 80.0184 33.04C81.3784 31.6 82.4184 29.94 83.1384 28.06C83.8584 26.18 84.2184 24.14 84.2184 21.94C84.2184 19.74 83.8584 17.7 83.1384 15.82C82.4184 13.94 81.3784 12.32 80.0184 10.96C78.6984 9.56 77.1384 8.48 75.3384 7.72C73.5384 6.92 71.5784 6.52 69.4584 6.52C67.3384 6.52 65.3784 6.92 63.5784 7.72C61.8184 8.48 60.2584 9.56 58.8984 10.96C57.5784 12.32 56.5384 13.94 55.7784 15.82C55.0584 17.7 54.6984 19.74 54.6984 21.94C54.6984 24.18 55.0584 26.24 55.7784 28.12C56.5384 29.96 57.5784 31.6 58.8984 33.04C60.2584 34.44 61.8184 35.52 63.5784 36.28C65.3784 37.04 67.3384 37.42 69.4584 37.42ZM96.6825 43V36.7H104.483V7.3H96.6825V0.999997H119.483V7.3H111.683V36.7H119.483V43H96.6825ZM126.885 43V36.7H144.945C146.105 36.7 147.105 36.42 147.945 35.86C148.825 35.3 149.505 34.58 149.985 33.7C150.505 32.78 150.765 31.82 150.765 30.82C150.765 29.74 150.525 28.76 150.045 27.88C149.565 27 148.885 26.3 148.005 25.78C147.165 25.26 146.185 25 145.065 25H137.565C135.205 25 133.085 24.52 131.205 23.56C129.365 22.56 127.905 21.18 126.825 19.42C125.745 17.66 125.205 15.58 125.205 13.18C125.205 10.78 125.725 8.68 126.765 6.88C127.805 5.04 129.225 3.6 131.025 2.56C132.825 1.52 134.865 0.999997 137.145 0.999997H155.205V7.3H137.805C136.765 7.3 135.825 7.56 134.985 8.08C134.145 8.6 133.485 9.28 133.005 10.12C132.565 10.96 132.345 11.86 132.345 12.82C132.345 13.82 132.565 14.74 133.005 15.58C133.485 16.38 134.125 17.04 134.925 17.56C135.765 18.04 136.705 18.28 137.745 18.28H145.425C147.985 18.28 150.185 18.78 152.025 19.78C153.905 20.78 155.345 22.16 156.345 23.92C157.385 25.68 157.905 27.7 157.905 29.98C157.905 32.66 157.365 34.98 156.285 36.94C155.245 38.86 153.805 40.36 151.965 41.44C150.165 42.48 148.125 43 145.845 43H126.885ZM175.062 43C172.742 43 170.662 42.46 168.822 41.38C166.982 40.26 165.522 38.78 164.442 36.94C163.402 35.06 162.882 33 162.882 30.76C162.882 29 163.282 27.34 164.082 25.78C164.922 24.18 166.082 22.84 167.562 21.76C166.082 20.68 164.942 19.38 164.142 17.86C163.342 16.3 162.942 14.68 162.942 13C162.942 10.76 163.462 8.74 164.502 6.94C165.582 5.14 167.022 3.7 168.822 2.62C170.622 1.54 172.622 0.999997 174.822 0.999997H191.742V7.36H175.602C174.602 7.36 173.682 7.62 172.842 8.14C172.002 8.62 171.322 9.28 170.802 10.12C170.322 10.96 170.082 11.92 170.082 13C170.082 13.96 170.342 14.86 170.862 15.7C171.382 16.54 172.062 17.22 172.902 17.74C173.742 18.22 174.682 18.46 175.722 18.46H189.642V24.82H176.082C174.882 24.82 173.822 25.1 172.902 25.66C171.982 26.22 171.262 26.96 170.742 27.88C170.262 28.76 170.022 29.74 170.022 30.82C170.022 31.86 170.262 32.84 170.742 33.76C171.262 34.64 171.962 35.36 172.842 35.92C173.762 36.44 174.802 36.7 175.962 36.7H191.742V43H175.062ZM198.545 43V36.7H216.605C217.765 36.7 218.765 36.42 219.605 35.86C220.485 35.3 221.165 34.58 221.645 33.7C222.165 32.78 222.425 31.82 222.425 30.82C222.425 29.74 222.185 28.76 221.705 27.88C221.225 27 220.545 26.3 219.665 25.78C218.825 25.26 217.845 25 216.725 25H209.225C206.865 25 204.745 24.52 202.865 23.56C201.025 22.56 199.565 21.18 198.485 19.42C197.405 17.66 196.865 15.58 196.865 13.18C196.865 10.78 197.385 8.68 198.425 6.88C199.465 5.04 200.885 3.6 202.685 2.56C204.485 1.52 206.525 0.999997 208.805 0.999997H226.865V7.3H209.465C208.425 7.3 207.485 7.56 206.645 8.08C205.805 8.6 205.145 9.28 204.665 10.12C204.225 10.96 204.005 11.86 204.005 12.82C204.005 13.82 204.225 14.74 204.665 15.58C205.145 16.38 205.785 17.04 206.585 17.56C207.425 18.04 208.365 18.28 209.405 18.28H217.085C219.645 18.28 221.845 18.78 223.685 19.78C225.565 20.78 227.005 22.16 228.005 23.92C229.045 25.68 229.565 27.7 229.565 29.98C229.565 32.66 229.025 34.98 227.945 36.94C226.905 38.86 225.465 40.36 223.625 41.44C221.825 42.48 219.785 43 217.505 43H198.545Z" fill="white"/>
</svg>
