<svg width="32" height="25" viewBox="0 0 32 25" fill="none" xmlns="http://www.w3.org/2000/svg">
<path d="M9.15345 14.6337C9.01453 14.5184 8.90372 14.3805 8.82749 14.228C8.75126 14.0755 8.71113 13.9115 8.70945 13.7455C8.70778 13.5795 8.74458 13.4149 8.81771 13.2613C8.89085 13.1077 8.99885 12.9681 9.13543 12.8508C9.272 12.7334 9.4344 12.6406 9.61316 12.5777C9.79192 12.5149 9.98345 12.4832 10.1766 12.4847C10.3697 12.4861 10.5606 12.5206 10.738 12.5861C10.9155 12.6516 11.076 12.7469 11.2102 12.8663L14.5455 15.7325V1.25C14.5455 0.918479 14.6987 0.600537 14.9715 0.366116C15.2443 0.131696 15.6142 0 16 0C16.3858 0 16.7557 0.131696 17.0285 0.366116C17.3013 0.600537 17.4545 0.918479 17.4545 1.25V15.7325L20.7898 12.8663C21.0641 12.6386 21.4316 12.5126 21.8129 12.5154C22.1943 12.5183 22.5591 12.6497 22.8288 12.8815C23.0985 13.1132 23.2515 13.4268 23.2548 13.7545C23.2581 14.0822 23.1115 14.398 22.8465 14.6337L17.0284 19.6338C16.893 19.7496 16.7323 19.8413 16.5556 19.9037C16.3797 19.9673 16.1908 20 16 20C15.8092 20 15.6203 19.9673 15.4444 19.9037C15.2677 19.8413 15.1071 19.7496 14.9716 19.6338L9.15345 14.6337ZM30.5455 12.5C30.1597 12.5 29.7897 12.6317 29.5169 12.8661C29.2442 13.1005 29.0909 13.4185 29.0909 13.75V22.5H2.90909V13.75C2.90909 13.4185 2.75584 13.1005 2.48306 12.8661C2.21028 12.6317 1.84031 12.5 1.45455 12.5C1.06878 12.5 0.698807 12.6317 0.426026 12.8661C0.153246 13.1005 0 13.4185 0 13.75V23.75C0 24.0815 0.153246 24.3995 0.426026 24.6339C0.698807 24.8683 1.06878 25 1.45455 25H30.5455C30.9312 25 31.3012 24.8683 31.574 24.6339C31.8468 24.3995 32 24.0815 32 23.75V13.75C32 13.4185 31.8468 13.1005 31.574 12.8661C31.3012 12.6317 30.9312 12.5 30.5455 12.5Z" fill="#E3E3E3"/>
</svg>
