<svg width="28" height="23" viewBox="0 0 28 23" fill="none" xmlns="http://www.w3.org/2000/svg">
<g clip-path="url(#clip0_381_787)">
<path d="M21 0V3.42754C20.132 3.56725 19.2966 3.91986 18.5208 4.44951C17.3182 5.27058 16.198 6.44296 15.0391 7.78945C12.7212 10.4824 10.2466 13.8972 7.09798 16.7648C6.5381 17.2748 5.59 17.521 4.33171 17.5645C3.07341 17.6079 1.56392 17.4656 0 17.4656V19.7656C1.45158 19.7656 2.96365 19.9116 4.39323 19.8622C5.82281 19.8129 7.22886 19.5843 8.34668 18.5662C11.699 15.513 14.2524 11.9836 16.4723 9.40439C17.5823 8.11477 18.6088 7.0692 19.5508 6.42607C20.063 6.07637 20.5362 5.85344 21 5.73652V9.2L28 4.6L21 0ZM4.39323 3.35342C2.96365 3.30405 1.45158 3.45 0 3.45V5.75C1.56392 5.75 3.07341 5.60763 4.33171 5.65117C5.59 5.69464 6.5381 5.93861 7.09798 6.44854C8.59554 7.81247 9.93482 9.29957 11.1836 10.7745C11.66 10.1992 12.1082 9.66374 12.5667 9.10342C11.2996 7.61144 9.91632 6.07899 8.34668 4.64941C7.22886 3.63134 5.82281 3.40278 4.39323 3.35342ZM15.3444 12.4456C14.8843 13.011 14.4631 13.5167 13.9613 14.1212C14.3112 14.545 14.6977 15.0273 15.0391 15.4239C16.198 16.7704 17.3182 17.9428 18.5208 18.7639C19.2966 19.2935 20.132 19.6461 21 19.7858V23L28 18.4L21 13.8V17.4791C20.5362 17.3628 20.063 17.1393 19.5508 16.7896C18.6088 16.1464 17.5823 15.1009 16.4723 13.8112C16.128 13.4111 15.7066 12.8861 15.3444 12.4456Z" fill="#E3E3E3"/>
</g>
<defs>
<clipPath id="clip0_381_787">
<rect width="28" height="23" fill="white"/>
</clipPath>
</defs>
</svg>
