<svg width="31" height="23" viewBox="0 0 31 23" fill="none" xmlns="http://www.w3.org/2000/svg">
<g clip-path="url(#clip0_380_773)">
<path d="M28.3418 4.9441C26.6541 3.25403 24.3083 2.20475 21.7301 2.20524H18.402L19.0823 0.588071C19.152 0.422712 19.1101 0.232161 18.9782 0.111299C18.8462 -0.00950301 18.6529 -0.0346342 18.494 0.0490164L12.8229 3.0472C12.6834 3.12017 12.597 3.26465 12.597 3.42126C12.597 3.57837 12.6835 3.72284 12.8229 3.79539L18.494 6.794C18.6519 6.87765 18.8452 6.85258 18.9782 6.7322C19.1101 6.6114 19.152 6.42042 19.0823 6.25543L18.4011 4.63638H21.7301C23.6446 4.63736 25.3668 5.40921 26.6224 6.66342C27.8771 7.91903 28.6485 9.64164 28.6494 11.5562C28.6484 13.4708 27.8771 15.1929 26.6224 16.449C25.3668 17.7032 23.6446 18.4751 21.7301 18.476V20.9073C24.3082 20.9078 26.654 19.8585 28.3418 18.1684C30.0323 16.4802 31.0816 14.1349 31.0807 11.5563C31.0816 8.97766 30.0323 6.63234 28.3418 4.9441Z" fill="#E3E3E3" fill-opacity="0.4"/>
<path d="M18.2579 19.3172L12.5867 16.3185C12.4288 16.2349 12.2355 16.26 12.1025 16.3803C11.9705 16.5011 11.9287 16.6921 11.9985 16.857L12.6797 18.476H9.3506C7.4361 18.4751 5.71392 17.7033 4.45831 16.4491C3.20361 15.193 2.43224 13.4708 2.43133 11.5563C2.4323 9.64179 3.20367 7.91912 4.45831 6.66351C5.71392 5.4093 7.4361 4.63744 9.3506 4.63647V2.20526C6.77248 2.20478 4.42675 3.25405 2.73892 4.94412C1.04836 6.63237 -0.000909973 8.97768 5.92164e-07 11.5563C-0.000909973 14.1349 1.04836 16.4802 2.73892 18.1684C4.42668 19.8586 6.77248 20.9078 9.3506 20.9074H12.6788L11.9985 22.5245C11.9288 22.6899 11.9706 22.8804 12.1025 23.0013C12.2345 23.1221 12.4278 23.1472 12.5867 23.0635L18.2579 20.0653C18.3972 19.9923 18.4837 19.8478 18.4837 19.6912C18.4838 19.5342 18.3972 19.3896 18.2579 19.3172Z" fill="#E3E3E3" fill-opacity="0.4"/>
</g>
<defs>
<clipPath id="clip0_380_773">
<rect width="31" height="23" fill="white"/>
</clipPath>
</defs>
</svg>
