<svg width="31" height="23" viewBox="0 0 31 23" fill="none" xmlns="http://www.w3.org/2000/svg">
<path d="M18.8696 23V20.4444C24.0722 20.4444 28.3043 16.4322 28.3043 11.5C28.3043 6.56778 24.0722 2.55556 18.8696 2.55556V0C25.5548 0 31 5.16222 31 11.5C31 17.8378 25.5548 23 18.8696 23ZM18.8696 17.8889V15.3333C21.0935 15.3333 22.913 13.6083 22.913 11.5C22.913 9.39167 21.0935 7.66667 18.8696 7.66667V5.11111C22.5896 5.11111 25.6087 7.97333 25.6087 11.5C25.6087 15.0267 22.5896 17.8889 18.8696 17.8889ZM0 11.5V16.6111H6.73913L14.8261 23V0L6.73913 6.38889H0V11.5Z" fill="#E3E3E3"/>
</svg>
