<svg width="24" height="24" viewBox="0 0 24 24" fill="none" xmlns="http://www.w3.org/2000/svg">
<path fill-rule="evenodd" clip-rule="evenodd" d="M15.8443 4.31294V3.26471C15.8443 3.11026 15.7801 2.96213 15.6658 2.85292C15.5515 2.74371 15.3965 2.68236 15.2349 2.68236H10.9691C5.95744 2.68236 2.43758 5.08514 2.43758 9.67059C2.43758 12.7827 4.30355 16.4643 6.50834 18.3663L6.91054 18.7134C7.0371 18.8225 7.13829 18.9558 7.20757 19.1047C7.27685 19.2536 7.31267 19.4147 7.31274 19.5776V21.3176H15.8443V19.8373C15.8444 19.6184 15.909 19.4039 16.0308 19.2185C16.1526 19.0331 16.3266 18.8843 16.5329 18.7891L17.2203 18.4711C17.7858 18.209 18.4391 17.9563 19.1642 17.7094L19.6774 17.5405C19.8245 17.4938 19.9479 17.3959 20.0229 17.2661C20.0979 17.1364 20.119 16.9844 20.082 16.8405L19.4641 14.4762C19.3935 14.2063 19.4264 13.9212 19.5567 13.6725L20.9339 11.0403C21.0025 10.9091 21.0167 10.758 20.9737 10.6173C20.9308 10.4765 20.8339 10.3564 20.7024 10.2809L18.2697 8.88558C18.1462 8.81487 18.053 8.70471 18.0064 8.5746L17.7894 7.97012C17.5708 7.35752 17.2801 6.77063 16.9229 6.22073L13.4067 7.34118V9.67059C13.4067 9.97949 13.2783 10.2757 13.0497 10.4942C12.8211 10.7126 12.5111 10.8353 12.1879 10.8353C11.8647 10.8353 11.5546 10.958 11.3261 11.1764C11.0975 11.3949 10.9691 11.6911 10.9691 12C10.9691 12.3089 11.0975 12.6051 11.3261 12.8236C11.5546 13.042 11.8647 13.1647 12.1879 13.1647C12.5111 13.1647 12.8211 13.2874 13.0497 13.5058C13.2783 13.7243 13.4067 14.0205 13.4067 14.3294C13.4067 14.6383 13.2783 14.9346 13.0497 15.153C12.8211 15.3714 12.5111 15.4941 12.1879 15.4941C11.3244 15.4953 10.4883 15.2045 9.82774 14.6731C9.16715 14.1417 8.72469 13.404 8.57871 12.5907C8.43273 11.7774 8.59266 10.941 9.03017 10.2296C9.46769 9.51819 10.1545 8.97771 10.9691 8.70389V6.96614C10.9693 6.73341 11.0424 6.50606 11.179 6.31341C11.3157 6.12075 11.5096 5.97164 11.7357 5.8853L15.8443 4.31294ZM6.09395 23.6471C5.7707 23.6471 5.4607 23.5244 5.23213 23.3059C5.00357 23.0875 4.87516 22.7913 4.87516 22.4824V20.0947C2.54361 18.0856 0 13.8787 0 9.67059C0 2.68236 6.09395 0.352943 10.9691 0.352943H15.8443C16.4907 0.352943 17.1108 0.598363 17.5679 1.03521C18.025 1.47206 18.2818 2.06456 18.2818 2.68236V4.02177C19.0709 4.98135 19.6844 6.0615 20.0966 7.21656L23.4081 9.11503C23.6715 9.26599 23.8655 9.50643 23.9514 9.78824C24.0373 10.0701 24.0086 10.3725 23.8712 10.635L22.0394 14.1372C21.9745 14.2613 21.9581 14.4033 21.9931 14.5379L22.8608 17.8573C22.9364 18.1592 22.8868 18.4774 22.7226 18.7452C22.5584 19.0131 22.2922 19.2099 21.9796 19.2946C21.0412 19.5543 19.7066 19.9573 18.628 20.4138C18.5238 20.459 18.4356 20.5322 18.3741 20.6244C18.3127 20.7166 18.2806 20.824 18.2818 20.9333V22.4824C18.2818 22.7913 18.1534 23.0875 17.9249 23.3059C17.6963 23.5244 17.3863 23.6471 17.0631 23.6471H6.09395Z" fill="#727272"/>
</svg>
