<svg width="24" height="24" viewBox="0 0 24 24" fill="none" xmlns="http://www.w3.org/2000/svg">
<path d="M23.9957 7.53944C23.9259 5.13963 22.8131 3.16716 21.239 1.96128C19.2142 0.408533 16.4226 0.123645 14.1023 1.81775C13.3365 2.37883 12.6197 3.1552 12.0001 4.17515C11.3805 3.1552 10.6648 2.37883 9.89793 1.81884C7.57758 0.123645 4.78705 0.408533 2.76124 1.96237C1.18597 3.16825 0.074343 5.14072 0.00452523 7.54052C-0.0336564 8.81491 0.162706 10.2372 0.864157 11.6758C1.96597 13.9342 7.14231 18.9556 11.9597 23.292L11.9979 23.3333L12.0001 23.3312L12.0023 23.3333L12.0416 23.292C16.8579 18.9567 22.0331 13.9353 23.136 11.6758C23.8386 10.2372 24.0328 8.81382 23.9957 7.53944Z" fill="#727272"/>
</svg>
