<svg width="24" height="24" viewBox="0 0 24 24" fill="none" xmlns="http://www.w3.org/2000/svg">
<path d="M20.4844 3.34738C18.243 1.08708 15.2047 0.00780181 12.0343 4.14578e-05C8.86391 -0.0077189 5.81953 1.05667 3.56721 3.30597V0.623083H1.94575V6.34411H7.62086V4.70953H4.46442C5.90374 3.81675 6.53335 3.15051 7.82888 2.58764C9.1244 2.02476 10.6236 1.87617 12.0343 1.87605C17.7586 1.87605 21.9465 6.13107 21.9465 11.9017C21.9465 17.6723 17.7586 21.7359 12.0343 21.7359C6.31001 21.7359 2.31016 17.6723 2.31016 11.9017H2.4222e-07C-0.000476559 14.2944 0.702982 16.6335 2.02139 18.6231C3.33981 20.6127 5.21394 22.1634 7.40673 23.0791C9.59952 23.9948 12.0124 24.2344 14.3403 23.7674C16.6682 23.3005 18.8064 22.1481 20.4844 20.456C21.599 19.3327 22.4831 17.9991 23.0863 16.5314C23.6895 15.0636 24 13.4904 24 11.9017C24 10.3129 23.6895 8.73975 23.0863 7.27199C22.4831 5.80423 21.599 4.47063 20.4844 3.34738Z" fill="#727272"/>
<path d="M11.5862 7.44827V12.6859L15.7241 16.1379" stroke="#727272" stroke-width="2"/>
</svg>
