<svg width="25" height="25" viewBox="0 0 25 25" fill="none" xmlns="http://www.w3.org/2000/svg">
<path d="M4.50273 2.98977C4.50273 1.88445 3.60669 0.988403 2.50137 0.988403C1.39604 0.988403 0.5 1.88445 0.5 2.98977V23.0034C0.5 24.1088 1.39604 25.0048 2.50137 25.0048C3.60669 25.0048 4.50273 24.1088 4.50273 23.0034V2.98977Z" fill="#727272"/>
<path d="M10.5068 2.98977C10.5068 1.88445 9.61078 0.988403 8.50546 0.988403C7.40013 0.988403 6.50409 1.88445 6.50409 2.98977V23.0034C6.50409 24.1088 7.40013 25.0048 8.50546 25.0048C9.61078 25.0048 10.5068 24.1088 10.5068 23.0034V2.98977Z" fill="#727272"/>
<path d="M16.9704 2.90875C16.5923 1.87008 15.4439 1.33454 14.4052 1.71259C13.3665 2.09063 12.831 3.2391 13.209 4.27776L20.0541 23.0845C20.4322 24.1231 21.5806 24.6587 22.6193 24.2806C23.658 23.9026 24.1935 22.7541 23.8155 21.7154L16.9704 2.90875Z" fill="#727272"/>
</svg>
